<svg width="16" height="16" viewBox="0 0 16 16" fill="none" xmlns="http://www.w3.org/2000/svg">
<path opacity="0.15" d="M15.7769 6.25216C15.873 6.76731 15.9254 7.30592 15.9254 7.86797C15.9254 12.2643 12.983 15.3904 8.53896 15.3904C7.52832 15.3907 6.52753 15.1919 5.59377 14.8053C4.66 14.4187 3.81157 13.8519 3.09694 13.1372C2.38231 12.4226 1.8155 11.5742 1.42889 10.6404C1.04227 9.70664 0.843442 8.70585 0.84375 7.69521C0.843442 6.68458 1.04227 5.68378 1.42889 4.75002C1.8155 3.81625 2.38231 2.96782 3.09694 2.25319C3.81157 1.53856 4.66 0.971747 5.59377 0.585136C6.52753 0.198524 7.52832 -0.000307779 8.53896 3.57598e-07C10.6168 3.57598e-07 12.353 0.764519 13.685 2.00588L11.5157 4.17514V4.16967C10.7082 3.40046 9.68339 3.0057 8.53896 3.0057C5.99995 3.0057 3.93622 5.15073 3.93622 7.69052C3.93622 10.2295 5.99995 12.3793 8.53896 12.3793C10.8427 12.3793 12.4108 11.0621 12.7329 9.25317H8.53896V6.25216H15.7776H15.7769Z" fill="#060D37"/>
</svg>
