<svg width="17" height="17" viewBox="0 0 17 17" fill="none" xmlns="http://www.w3.org/2000/svg">
<path opacity="0.15" d="M8.50674 0C6.2438 0 5.95924 0.0104235 5.07012 0.0500326C4.181 0.0917264 3.5754 0.231401 3.04484 0.437785C2.48833 0.647108 1.98425 0.975455 1.56784 1.39987C1.14368 1.81649 0.815377 2.32051 0.605754 2.87687C0.39937 3.40639 0.258653 4.01303 0.218001 4.89903C0.178392 5.79023 0.167969 6.07375 0.167969 8.33981C0.167969 10.6038 0.178392 10.8873 0.218001 11.7764C0.259695 12.6645 0.39937 13.2701 0.605754 13.8007C0.819435 14.3489 1.104 14.8138 1.56784 15.2777C2.03064 15.7415 2.49553 16.0271 3.0438 16.2397C3.5754 16.4461 4.17996 16.5868 5.06804 16.6275C5.9582 16.6671 6.24172 16.6775 8.50674 16.6775C10.7718 16.6775 11.0542 16.6671 11.9444 16.6275C12.8314 16.5858 13.4391 16.4461 13.9697 16.2397C14.5258 16.0303 15.0295 15.702 15.4456 15.2777C15.9095 14.8138 16.194 14.3489 16.4077 13.8007C16.6131 13.2701 16.7538 12.6645 16.7955 11.7764C16.8351 10.8873 16.8455 10.6038 16.8455 8.33877C16.8455 6.07375 16.8351 5.79023 16.7955 4.90007C16.7538 4.01303 16.6131 3.40639 16.4077 2.87687C16.1981 2.3205 15.8698 1.81647 15.4456 1.39987C15.0294 0.975298 14.5252 0.646927 13.9686 0.437785C13.437 0.231401 12.8304 0.0906841 11.9433 0.0500326C11.0532 0.0104235 10.7707 0 8.50465 0H8.50778H8.50674ZM7.75937 1.50306H8.50778C10.7342 1.50306 10.9979 1.51036 11.8766 1.55101C12.6897 1.58749 13.1316 1.72404 13.4256 1.83766C13.8144 1.9888 14.0927 2.17016 14.3845 2.46202C14.6764 2.75388 14.8567 3.03114 15.0078 3.42098C15.1225 3.71388 15.258 4.15583 15.2945 4.96886C15.3351 5.84756 15.3435 6.11127 15.3435 8.33668C15.3435 10.5621 15.3351 10.8268 15.2945 11.7055C15.258 12.5186 15.1215 12.9595 15.0078 13.2534C14.8742 13.6155 14.6608 13.9429 14.3835 14.2113C14.0916 14.5032 13.8144 14.6835 13.4245 14.8347C13.1327 14.9493 12.6907 15.0848 11.8766 15.1224C10.9979 15.162 10.7342 15.1713 8.50778 15.1713C6.28133 15.1713 6.01657 15.162 5.13787 15.1224C4.32484 15.0848 3.88393 14.9493 3.58999 14.8347C3.22777 14.7012 2.90009 14.4882 2.63103 14.2113C2.35351 13.9425 2.1398 13.6148 2.00562 13.2524C1.89201 12.9595 1.75546 12.5175 1.71898 11.7045C1.67937 10.8258 1.67103 10.5621 1.67103 8.3346C1.67103 6.10815 1.67937 5.84548 1.71898 4.96678C1.7565 4.15375 1.89201 3.71179 2.00667 3.41785C2.15781 3.02906 2.33918 2.75075 2.63103 2.45889C2.92289 2.16704 3.20015 1.98671 3.58999 1.83557C3.88393 1.72091 4.32484 1.58541 5.13787 1.54788C5.90713 1.51244 6.20524 1.50202 7.75937 1.50098V1.50306ZM12.9586 2.8873C12.8272 2.8873 12.6971 2.91318 12.5757 2.96347C12.4543 3.01376 12.3439 3.08746 12.251 3.18038C12.1581 3.2733 12.0844 3.38361 12.0341 3.50502C11.9838 3.62642 11.9579 3.75654 11.9579 3.88795C11.9579 4.01936 11.9838 4.14948 12.0341 4.27088C12.0844 4.39229 12.1581 4.5026 12.251 4.59552C12.3439 4.68844 12.4543 4.76214 12.5757 4.81243C12.6971 4.86272 12.8272 4.8886 12.9586 4.8886C13.224 4.8886 13.4785 4.78318 13.6662 4.59552C13.8538 4.40786 13.9592 4.15334 13.9592 3.88795C13.9592 3.62256 13.8538 3.36804 13.6662 3.18038C13.4785 2.99272 13.224 2.8873 12.9586 2.8873ZM8.50778 4.05681C7.93977 4.04795 7.37568 4.15217 6.84834 4.36341C6.321 4.57464 5.84095 4.88868 5.43614 5.28722C5.03133 5.68576 4.70985 6.16085 4.49041 6.68483C4.27097 7.20882 4.15796 7.77121 4.15796 8.33929C4.15796 8.90736 4.27097 9.46976 4.49041 9.99374C4.70985 10.5177 5.03133 10.9928 5.43614 11.3914C5.84095 11.7899 6.321 12.1039 6.84834 12.3152C7.37568 12.5264 7.93977 12.6306 8.50778 12.6218C9.63199 12.6042 10.7042 12.1453 11.493 11.3441C12.2818 10.5429 12.724 9.46364 12.724 8.33929C12.724 7.21494 12.2818 6.13568 11.493 5.33447C10.7042 4.53325 9.63199 4.07435 8.50778 4.05681ZM8.50778 5.55883C9.24506 5.55883 9.95215 5.85172 10.4735 6.37305C10.9948 6.89439 11.2877 7.60148 11.2877 8.33877C11.2877 9.07605 10.9948 9.78314 10.4735 10.3045C9.95215 10.8258 9.24506 11.1187 8.50778 11.1187C7.77049 11.1187 7.06341 10.8258 6.54207 10.3045C6.02073 9.78314 5.72784 9.07605 5.72784 8.33877C5.72784 7.60148 6.02073 6.89439 6.54207 6.37305C7.06341 5.85172 7.77049 5.55883 8.50778 5.55883Z" fill="#060D37"/>
</svg>
