<svg width="20" height="16" viewBox="0 0 20 16" fill="none" xmlns="http://www.w3.org/2000/svg">
<path opacity="0.15" d="M6.06845 15.6972C13.3588 15.6972 17.3469 9.6565 17.3469 4.42721C17.3469 4.25817 17.3469 4.08672 17.3396 3.91768C18.1161 3.35561 18.7862 2.65974 19.3186 1.86267C18.5933 2.18245 17.8247 2.39321 17.0378 2.4881C17.8667 1.99263 18.4875 1.21304 18.7849 0.294238C18.0061 0.755619 17.1537 1.07951 16.265 1.25171C15.6676 0.615438 14.877 0.193923 14.0157 0.0524628C13.1545 -0.0889978 12.2706 0.0574904 11.501 0.469237C10.7314 0.880983 10.1191 1.53501 9.75884 2.33001C9.3986 3.125 9.31056 4.01661 9.50836 4.8667C7.93238 4.78768 6.3906 4.37827 4.98304 3.66502C3.57547 2.95177 2.33354 1.95062 1.33781 0.726491C0.832317 1.59955 0.67805 2.63227 0.906338 3.61494C1.13463 4.59761 1.72835 5.45656 2.56696 6.01737C1.93855 5.99602 1.32395 5.82727 0.772743 5.52474V5.57908C0.773827 6.49367 1.09066 7.37984 1.6697 8.08779C2.24873 8.79574 3.05445 9.28205 3.95065 9.46453C3.61048 9.55824 3.25908 9.60496 2.90624 9.60338C2.65749 9.60413 2.40924 9.58109 2.16489 9.53456C2.41819 10.3219 2.9114 11.0102 3.57544 11.5032C4.23949 11.9962 5.0411 12.2692 5.86802 12.2838C4.46326 13.3872 2.72803 13.9856 0.941781 13.9827C0.627034 13.984 0.312506 13.9658 0 13.9283C1.81295 15.0841 3.91841 15.6978 6.06845 15.6972Z" fill="#060D37"/>
</svg>
